<svg xmlns="http://www.w3.org/2000/svg" viewBox="0 0 24 24" fill="none" stroke="currentColor" stroke-width="1.7" stroke-linecap="round" stroke-linejoin="round">
  <circle cx="12" cy="12" r="3"/>
  <path d="M19.4 14.8a1.6 1.6 0 0 0 .3 1.8l.1.1a1.9 1.9 0 1 1-2.7 2.7l-.1-.1a1.6 1.6 0 0 0-1.8-.3 1.6 1.6 0 0 0-1 1.4v.2a1.9 1.9 0 1 1-3.8 0v-.1a1.6 1.6 0 0 0-1-1.5 1.6 1.6 0 0 0-1.8.3l-.1.1a1.9 1.9 0 1 1-2.7-2.7l.1-.1a1.6 1.6 0 0 0 .3-1.8 1.6 1.6 0 0 0-1.4-1H3.2a1.9 1.9 0 1 1 0-3.8h.1a1.6 1.6 0 0 0 1.4-1 1.6 1.6 0 0 0-.3-1.8l-.1-.1a1.9 1.9 0 1 1 2.7-2.7l.1.1a1.6 1.6 0 0 0 1.8.3h.2a1.6 1.6 0 0 0 .9-1.4V3.2a1.9 1.9 0 1 1 3.8 0v.1a1.6 1.6 0 0 0 1 1.4 1.6 1.6 0 0 0 1.8-.3l.1-.1a1.9 1.9 0 1 1 2.7 2.7l-.1.1a1.6 1.6 0 0 0-.3 1.8V9a1.6 1.6 0 0 0 1.4 1h.2a1.9 1.9 0 1 1 0 3.8h-.2a1.6 1.6 0 0 0-1.4 1Z"/>
</svg>
